<svg width="48.000000" height="40.708862" viewBox="0 0 48 40.7089" fill="none" xmlns="http://www.w3.org/2000/svg" xmlns:xlink="http://www.w3.org/1999/xlink">
	<desc>
			Created with Pixso.
	</desc>
	<defs>
		<clipPath id="clip1_43">
			<rect id="carbon:tool-box" rx="0.000000" width="47.000000" height="39.708862" transform="translate(0.500000 0.500000)" fill="white" fill-opacity="0"/>
		</clipPath>
	</defs>
	<rect id="carbon:tool-box" rx="0.000000" width="47.000000" height="39.708862" transform="translate(0.500000 0.500000)" fill="#FFFFFF" fill-opacity="0"/>
	<g clip-path="url(#clip1_43)">
		<path id="Vector" d="M42.58 8.52L37.51 8.52L37.51 3.45C37.51 2.55 37.16 1.69 36.52 1.06C35.89 0.43 35.03 0.07 34.13 0.07L13.86 0.07C12.96 0.07 12.1 0.43 11.47 1.06C10.83 1.69 10.48 2.55 10.48 3.45L10.48 8.52L5.41 8.52C4.06 8.52 2.77 9.05 1.82 10.01C0.87 10.96 0.34 12.25 0.34 13.59L0.34 37.25C0.34 38.14 0.69 39 1.33 39.64C1.96 40.27 2.82 40.63 3.72 40.63L44.27 40.63C45.17 40.63 46.03 40.27 46.66 39.64C47.3 39 47.65 38.14 47.65 37.25L47.65 13.59C47.65 12.25 47.12 10.96 46.17 10.01C45.22 9.05 43.93 8.52 42.58 8.52ZM13.86 3.45L34.13 3.45L34.13 8.52L13.86 8.52L13.86 3.45ZM44.27 37.25L3.72 37.25L3.72 22.04L17.24 22.04L17.24 30.49L30.75 30.49L30.75 22.04L44.27 22.04L44.27 37.25ZM20.62 22.04L27.37 22.04L27.37 27.11L20.62 27.11L20.62 22.04ZM3.72 18.66L3.72 13.59C3.72 13.14 3.89 12.71 4.21 12.4C4.53 12.08 4.96 11.9 5.41 11.9L42.58 11.9C43.03 11.9 43.46 12.08 43.78 12.4C44.1 12.71 44.27 13.14 44.27 13.59L44.27 18.66L3.72 18.66Z" fill="#00A0C1" fill-opacity="1.000000" fill-rule="nonzero"/>
	</g>
</svg>
