<svg width="48.000000" height="48.000000" viewBox="0 0 48 48" fill="none" xmlns="http://www.w3.org/2000/svg" xmlns:xlink="http://www.w3.org/1999/xlink">
	<desc>
			Created with Pixso.
	</desc>
	<defs>
		<clipPath id="clip1_98">
			<rect id="clarity:users-line" rx="0.000000" width="47.000000" height="43.210526" transform="translate(1.000000 2.500000)" fill="white" fill-opacity="0"/>
		</clipPath>
		<clipPath id="clip1_97">
			<rect id="icn settings .icn-lg" rx="0.000000" width="47.000000" height="47.000000" transform="translate(0.500000 0.500000)" fill="white" fill-opacity="0"/>
		</clipPath>
	</defs>
	<rect id="icn settings .icn-lg" rx="0.000000" width="47.000000" height="47.000000" transform="translate(0.500000 0.500000)" fill="#FFFFFF" fill-opacity="0"/>
	<g clip-path="url(#clip1_97)">
		<rect id="clarity:users-line" rx="0.000000" width="47.000000" height="43.210526" transform="translate(1.000000 2.500000)" fill="#FFFFFF" fill-opacity="0"/>
		<g clip-path="url(#clip1_98)">
			<path id="Vector" d="M24.34 22.8C28.64 22.8 31.99 19.3 31.99 15.01C31.99 10.72 28.48 7.39 24.18 7.39C19.87 7.39 16.52 10.88 16.52 15.01C16.52 19.3 20.03 22.8 24.34 22.8ZM24.18 10.56C26.73 10.56 28.8 12.63 28.8 15.17C28.8 17.71 26.73 19.62 24.18 19.62C21.63 19.62 19.71 17.55 19.71 15.17C19.71 12.63 21.79 10.56 24.18 10.56Z" fill="#00A0C1" fill-opacity="1.000000" fill-rule="nonzero"/>
			<path id="Vector" d="M47.93 21.84C44.9 19.14 40.91 17.71 36.77 17.87L35.49 17.87C35.18 19.14 34.7 20.25 34.06 21.21C35.02 21.05 35.81 21.05 36.77 21.05C39.8 20.89 42.83 21.84 45.22 23.59L45.22 35.03L48.41 35.03L48.41 22.32L47.93 21.84Z" fill="#00A0C1" fill-opacity="1.000000" fill-rule="nonzero"/>
			<path id="Vector" d="M33.1 7.7C33.9 5.8 36.13 4.84 38.2 5.64C40.12 6.43 41.07 8.66 40.28 10.72C39.64 12.15 38.2 13.11 36.77 13.11C36.45 13.11 35.97 13.11 35.65 12.95C35.81 13.74 35.81 14.53 35.81 15.17L35.81 16.12C36.13 16.12 36.45 16.28 36.77 16.28C40.76 16.28 43.94 13.11 43.94 9.29C43.94 5.32 40.76 2.14 36.93 2.14C34.38 2.14 32.15 3.41 30.87 5.64C31.67 6.11 32.47 6.75 33.1 7.7Z" fill="#00A0C1" fill-opacity="1.000000" fill-rule="nonzero"/>
			<path id="Vector" d="M14.93 21.37C14.29 20.41 13.81 19.3 13.5 18.03L12.22 18.03C8.08 17.87 4.09 19.3 1.06 21.84L0.58 22.32L0.58 35.03L3.77 35.03L3.77 23.59C6.32 21.84 9.19 20.89 12.22 21.05C13.18 21.05 14.13 21.21 14.93 21.37Z" fill="#00A0C1" fill-opacity="1.000000" fill-rule="nonzero"/>
			<path id="Vector" d="M12.22 16.12C12.54 16.12 12.86 16.12 13.18 15.97L13.18 15.01C13.18 14.22 13.18 13.42 13.34 12.79C13.02 12.95 12.54 12.95 12.22 12.95C10.15 12.95 8.39 11.2 8.39 9.13C8.39 7.07 10.15 5.32 12.22 5.32C13.81 5.32 15.25 6.27 15.89 7.7C16.52 6.91 17.48 6.12 18.28 5.48C16.21 2.14 11.9 1.03 8.55 3.1C5.21 5.16 4.09 9.45 6.16 12.79C7.44 14.85 9.67 16.12 12.22 16.12Z" fill="#00A0C1" fill-opacity="1.000000" fill-rule="nonzero"/>
			<path id="Vector" d="M37.41 31.38L37.09 30.9C33.9 27.4 29.44 25.34 24.65 25.5C19.87 25.34 15.25 27.4 12.06 30.9L11.74 31.38L11.74 43.45C11.74 44.88 12.86 46.15 14.45 46.15L34.86 46.15C36.29 46.15 37.57 44.88 37.57 43.45L37.57 31.38L37.41 31.38ZM34.22 42.97L14.93 42.97L14.93 32.49C17.48 29.95 20.99 28.68 24.65 28.68C28.16 28.52 31.67 29.95 34.22 32.49L34.22 42.97Z" fill="#00A0C1" fill-opacity="1.000000" fill-rule="nonzero"/>
		</g>
	</g>
</svg>
